<svg width="270" height="45" viewBox="0 0 270 45" fill="none" xmlns="http://www.w3.org/2000/svg">
<path d="M68.6812 35.2004H75.8415C77.6071 35.2004 78.9476 35.0671 80.2227 33.6005C81.4325 32.2339 81.5633 31.034 81.5633 29.334V24.8009C81.5633 23.001 81.4325 21.7677 80.0266 20.4344C78.8495 19.3011 77.7706 19.0678 76.2666 19.0678H65.4116V43.3334C65.4116 44.4 65.8694 45 67.0464 45C68.2234 45 68.6812 44.4 68.6812 43.3334V35.2004ZM68.6812 22.401H75.9396C77.8686 22.401 78.2937 22.901 78.2937 24.8009V29.4674C78.2937 31.3673 77.8686 31.8673 75.9396 31.8673H68.6812V22.401Z" fill="white"/>
<path d="M100.975 21.801C100.191 20.2344 98.8503 19.0678 97.0193 19.0678C95.1884 19.0678 93.8479 20.2344 93.0632 21.801L89.7936 28.4341C89.1724 29.734 88.9435 30.7006 88.9435 32.1339C88.9435 33.7338 89.3686 34.7338 90.0225 36.1004L93.0305 42.2335C93.8152 43.8334 95.123 45 97.0193 45C98.9157 45 100.223 43.8334 101.008 42.2335L104.016 36.1004C104.67 34.7338 105.095 33.7338 105.095 32.1339C105.095 30.7006 104.866 29.734 104.245 28.4341L100.975 21.801ZM101.074 29.434C101.564 30.4007 101.826 31.034 101.826 32.1339C101.826 33.0005 101.629 33.6005 101.27 34.3338L98.131 40.6669C97.9021 41.1335 97.6732 41.6668 97.0193 41.6668C96.3654 41.6668 96.1365 41.1335 95.9077 40.6669L92.7689 34.3338C92.4092 33.6005 92.2131 33.0005 92.2131 32.1339C92.2131 31.034 92.4746 30.4007 92.9651 29.434L95.9077 23.401C96.1692 22.8676 96.3327 22.401 97.0193 22.401C97.7059 22.401 97.8694 22.8676 98.131 23.401L101.074 29.434Z" fill="white"/>
<path d="M115.745 41.6668V20.7344C115.745 19.6678 115.287 19.0678 114.11 19.0678C112.933 19.0678 112.475 19.6678 112.475 20.7344V45H126.992C127.842 45 128.627 44.5334 128.627 43.3334C128.627 42.1335 127.842 41.6668 126.992 41.6668H115.745Z" fill="white"/>
<path d="M145.718 32.6672L152.159 24.1343V20.7344C152.159 19.6678 151.701 19.0678 150.524 19.0678C149.347 19.0678 148.889 19.6678 148.889 20.7344V23.001L144.083 29.3674L139.277 23.001V20.7344C139.277 19.6678 138.819 19.0678 137.642 19.0678C136.465 19.0678 136.007 19.6678 136.007 20.7344V24.1343L142.448 32.6672V43.3334C142.448 44.4 142.906 45 144.083 45C145.26 45 145.718 44.4 145.718 43.3334V32.6672Z" fill="white"/>
<path d="M174.056 45C174.808 45 175.691 44.5334 175.691 43.3334C175.691 42.0668 174.775 41.6668 174.056 41.6668H168.727C167.255 41.6668 166.928 41.5668 166.274 40.2002L163.495 34.4338C163.103 33.6338 162.809 33.0672 162.809 32.1339C162.809 31.1006 163.07 30.5006 163.495 29.6007L166.34 23.8009C166.961 22.5343 167.19 22.401 168.596 22.401H174.056C174.808 22.401 175.691 21.9344 175.691 20.7344C175.691 19.4678 174.775 19.0678 174.056 19.0678H168.498C165.98 19.0678 164.574 19.9678 163.463 22.2677L160.455 28.4341C159.801 29.7673 159.539 30.6673 159.539 32.1339C159.539 33.4339 159.866 34.5005 160.422 35.6338L163.43 41.8335C164.476 44.0001 165.882 45 168.334 45H174.056Z" fill="white"/>
<path d="M186.341 30.934H187.093L196.117 44.0667C196.476 44.6 196.901 45 197.555 45C198.471 45 199.223 44.3667 199.223 43.4334C199.223 42.8001 198.765 42.1668 198.405 41.6668L191.049 30.934H194.057C196.672 30.934 199.223 29.334 199.223 26.2008V23.9009C199.223 20.9344 196.64 19.0678 194.057 19.0678H183.071V43.3334C183.071 44.4 183.529 45 184.706 45C185.883 45 186.341 44.4 186.341 43.3334V30.934ZM186.341 22.401H193.632C194.613 22.401 195.953 22.5677 195.953 23.9009V26.2008C195.953 27.5341 194.515 27.6008 193.599 27.6008H186.341V22.401Z" fill="white"/>
<path d="M206.603 43.3334C206.374 44.1334 207.257 45 208.172 45C209.186 45 209.709 44.1334 209.938 43.3334L211.18 39.3336H218.145L219.354 43.3334C219.583 44.1334 220.106 45 221.12 45C222.035 45 222.918 44.1334 222.689 43.3334L216.379 20.7677C216.15 19.9011 215.758 19.0678 214.679 19.0678C213.633 19.0678 213.273 19.8678 213.011 20.7677L206.603 43.3334ZM217.229 36.0004H212.096L214.646 26.9675H214.712L217.229 36.0004Z" fill="white"/>
<path d="M236.576 22.401V43.3334C236.576 44.4 237.034 45 238.211 45C239.388 45 239.845 44.4 239.845 43.3334V22.401H243.017V23.6009C243.017 24.6676 243.475 25.2675 244.652 25.2675C245.829 25.2675 246.287 24.6676 246.287 23.6009V19.0678H230.135V23.6009C230.135 24.6676 230.593 25.2675 231.77 25.2675C232.947 25.2675 233.404 24.6676 233.404 23.6009V22.401H236.576Z" fill="white"/>
<path d="M256.936 41.6668V33.7005H261.743C262.593 33.7005 263.377 33.2339 263.377 32.0339C263.377 30.834 262.593 30.3673 261.743 30.3673H256.936V22.401H268.184C269.034 22.401 269.818 21.9344 269.818 20.7344C269.818 19.5345 269.034 19.0678 268.184 19.0678H253.667V45H268.184C269.034 45 269.818 44.5334 269.818 43.3334C269.818 42.1335 269.034 41.6668 268.184 41.6668H256.936Z" fill="white"/>
<rect x="14.873" width="14.8729" height="14.8729" transform="rotate(90 14.873 0)" fill="#91EE81"/>
<rect x="29.7461" width="14.8729" height="14.8729" transform="rotate(90 29.7461 0)" fill="#00A5FF"/>
<rect x="29.7461" y="14.8729" width="14.8729" height="14.8729" transform="rotate(90 29.7461 14.8729)" fill="#68369B"/>
<rect x="14.873" y="29.7458" width="14.8729" height="14.8729" transform="rotate(90 14.873 29.7458)" fill="#68369B"/>
</svg>
