<svg width="270" height="45" viewBox="0 0 270 45" fill="none" xmlns="http://www.w3.org/2000/svg">
<path d="M68.6817 26.1327H75.842C77.6076 26.1327 78.9481 25.9994 80.2232 24.5328C81.433 23.1662 81.5637 21.9662 81.5637 20.2663V15.7331C81.5637 13.9332 81.433 12.6999 80.027 11.3667C78.85 10.2334 77.771 10.0001 76.2671 10.0001H65.4121V34.2657C65.4121 35.3323 65.8698 35.9323 67.0469 35.9323C68.2239 35.9323 68.6817 35.3323 68.6817 34.2657V26.1327ZM68.6817 13.3332H75.9401C77.8691 13.3332 78.2942 13.8332 78.2942 15.7331V20.3996C78.2942 22.2995 77.8691 22.7995 75.9401 22.7995H68.6817V13.3332Z" fill="white"/>
<path d="M100.976 12.7333C100.191 11.1667 98.8508 10.0001 97.0198 10.0001C95.1889 10.0001 93.8483 11.1667 93.0637 12.7333L89.7941 19.3663C89.1729 20.6663 88.944 21.6329 88.944 23.0662C88.944 24.6661 89.369 25.666 90.023 27.0327L93.031 33.1657C93.8156 34.7656 95.1235 35.9323 97.0198 35.9323C98.9162 35.9323 100.224 34.7656 101.009 33.1657L104.017 27.0327C104.671 25.666 105.096 24.6661 105.096 23.0662C105.096 21.6329 104.867 20.6663 104.246 19.3663L100.976 12.7333ZM101.074 20.3663C101.565 21.3329 101.826 21.9662 101.826 23.0662C101.826 23.9328 101.63 24.5328 101.27 25.2661L98.1315 31.5991C97.9026 32.0658 97.6737 32.5991 97.0198 32.5991C96.3659 32.5991 96.137 32.0658 95.9082 31.5991L92.7694 25.2661C92.4097 24.5328 92.2136 23.9328 92.2136 23.0662C92.2136 21.9662 92.4751 21.3329 92.9656 20.3663L95.9082 14.3332C96.1697 13.7999 96.3332 13.3332 97.0198 13.3332C97.7064 13.3332 97.8699 13.7999 98.1315 14.3332L101.074 20.3663Z" fill="white"/>
<path d="M115.745 32.5991V11.6667C115.745 10.6 115.288 10.0001 114.111 10.0001C112.934 10.0001 112.476 10.6 112.476 11.6667V35.9323H126.993C127.843 35.9323 128.628 35.4656 128.628 34.2657C128.628 33.0657 127.843 32.5991 126.993 32.5991H115.745Z" fill="white"/>
<path d="M145.718 23.5995L152.159 15.0665V11.6667C152.159 10.6 151.702 10.0001 150.525 10.0001C149.348 10.0001 148.89 10.6 148.89 11.6667V13.9332L144.084 20.2996L139.277 13.9332V11.6667C139.277 10.6 138.82 10.0001 137.643 10.0001C136.466 10.0001 136.008 10.6 136.008 11.6667V15.0665L142.449 23.5995V34.2657C142.449 35.3323 142.907 35.9323 144.084 35.9323C145.261 35.9323 145.718 35.3323 145.718 34.2657V23.5995Z" fill="white"/>
<path d="M174.057 35.9323C174.809 35.9323 175.691 35.4656 175.691 34.2657C175.691 32.9991 174.776 32.5991 174.057 32.5991H168.727C167.256 32.5991 166.929 32.4991 166.275 31.1325L163.496 25.3661C163.104 24.5661 162.809 23.9995 162.809 23.0662C162.809 22.0329 163.071 21.4329 163.496 20.5329L166.34 14.7332C166.962 13.4666 167.19 13.3332 168.596 13.3332H174.057C174.809 13.3332 175.691 12.8666 175.691 11.6667C175.691 10.4 174.776 10.0001 174.057 10.0001H168.498C165.981 10.0001 164.575 10.9 163.463 13.1999L160.455 19.3663C159.801 20.6996 159.54 21.5996 159.54 23.0662C159.54 24.3661 159.867 25.4327 160.422 26.566L163.43 32.7657C164.477 34.9323 165.883 35.9323 168.335 35.9323H174.057Z" fill="white"/>
<path d="M186.341 21.8662H187.093L196.117 34.999C196.477 35.5323 196.902 35.9323 197.556 35.9323C198.471 35.9323 199.223 35.299 199.223 34.3657C199.223 33.7324 198.765 33.0991 198.406 32.5991L191.049 21.8662H194.057C196.673 21.8662 199.223 20.2663 199.223 17.1331V14.8332C199.223 11.8666 196.64 10.0001 194.057 10.0001H183.072V34.2657C183.072 35.3323 183.529 35.9323 184.706 35.9323C185.883 35.9323 186.341 35.3323 186.341 34.2657V21.8662ZM186.341 13.3332H193.632C194.613 13.3332 195.954 13.4999 195.954 14.8332V17.1331C195.954 18.4664 194.515 18.533 193.6 18.533H186.341V13.3332Z" fill="white"/>
<path d="M206.603 34.2657C206.375 35.0656 207.257 35.9323 208.173 35.9323C209.186 35.9323 209.71 35.0656 209.938 34.2657L211.181 30.2658H218.145L219.355 34.2657C219.584 35.0656 220.107 35.9323 221.12 35.9323C222.036 35.9323 222.919 35.0656 222.69 34.2657L216.379 11.7C216.151 10.8334 215.758 10.0001 214.679 10.0001C213.633 10.0001 213.273 10.8 213.012 11.7L206.603 34.2657ZM217.23 26.9327H212.096L214.647 17.8997H214.712L217.23 26.9327Z" fill="white"/>
<path d="M236.576 13.3332V34.2657C236.576 35.3323 237.034 35.9323 238.211 35.9323C239.388 35.9323 239.846 35.3323 239.846 34.2657V13.3332H243.017V14.5332C243.017 15.5998 243.475 16.1998 244.652 16.1998C245.829 16.1998 246.287 15.5998 246.287 14.5332V10.0001H230.135V14.5332C230.135 15.5998 230.593 16.1998 231.77 16.1998C232.947 16.1998 233.405 15.5998 233.405 14.5332V13.3332H236.576Z" fill="white"/>
<path d="M256.937 32.5991V24.6328H261.743C262.593 24.6328 263.378 24.1661 263.378 22.9662C263.378 21.7662 262.593 21.2996 261.743 21.2996H256.937V13.3332H268.184C269.034 13.3332 269.819 12.8666 269.819 11.6667C269.819 10.4667 269.034 10.0001 268.184 10.0001H253.667V35.9323H268.184C269.034 35.9323 269.819 35.4656 269.819 34.2657C269.819 33.0657 269.034 32.5991 268.184 32.5991H256.937Z" fill="white"/>
<rect x="14.873" width="14.8729" height="14.8729" transform="rotate(90 14.873 0)" fill="#91EE81"/>
<rect x="29.7461" width="14.8729" height="14.8729" transform="rotate(90 29.7461 0)" fill="#00A5FF"/>
<rect x="29.7461" y="14.8729" width="14.8729" height="14.8729" transform="rotate(90 29.7461 14.8729)" fill="#68369B"/>
<rect x="14.873" y="29.7458" width="14.8729" height="14.8729" transform="rotate(90 14.873 29.7458)" fill="#68369B"/>
</svg>
